<svg width="18" height="18" viewBox="0 0 18 18" fill="none" xmlns="http://www.w3.org/2000/svg">
<path d="M0.75 2.25H12V12H0.75V2.25Z" stroke="white" stroke-width="1.5" stroke-linecap="round" stroke-linejoin="round"/>
<path d="M12 6H15L17.25 8.25V12H12V6Z" stroke="white" stroke-width="1.5" stroke-linecap="round" stroke-linejoin="round"/>
<path d="M4.125 12C3.62772 12 3.15081 12.1975 2.79917 12.5492C2.44754 12.9008 2.25 13.3777 2.25 13.875C2.25 14.3723 2.44754 14.8492 2.79917 15.2008C3.15081 15.5525 3.62772 15.75 4.125 15.75C4.62228 15.75 5.09919 15.5525 5.45083 15.2008C5.80246 14.8492 6 14.3723 6 13.875C6 13.3777 5.80246 12.9008 5.45083 12.5492C5.09919 12.1975 4.62228 12 4.125 12Z" stroke="white" stroke-width="1.5" stroke-linecap="round" stroke-linejoin="round"/>
<path d="M13.875 12C13.3777 12 12.9008 12.1975 12.5492 12.5492C12.1975 12.9008 12 13.3777 12 13.875C12 14.3723 12.1975 14.8492 12.5492 15.2008C12.9008 15.5525 13.3777 15.75 13.875 15.75C14.3723 15.75 14.8492 15.5525 15.2008 15.2008C15.5525 14.8492 15.75 14.3723 15.75 13.875C15.75 13.3777 15.5525 12.9008 15.2008 12.5492C14.8492 12.1975 14.3723 12 13.875 12Z" stroke="white" stroke-width="1.5" stroke-linecap="round" stroke-linejoin="round"/>
</svg>
