<svg width="16" height="16" viewBox="0 0 16 16" fill="none" xmlns="http://www.w3.org/2000/svg">
<path d="M14 6.6665C14 11.3332 8 15.3332 8 15.3332C8 15.3332 2 11.3332 2 6.6665C2 5.0752 2.63214 3.54908 3.75736 2.42386C4.88258 1.29864 6.4087 0.666504 8 0.666504C9.5913 0.666504 11.1174 1.29864 12.2426 2.42386C13.3679 3.54908 14 5.0752 14 6.6665Z" stroke="black" stroke-width="1.25" stroke-linecap="round" stroke-linejoin="round"/>
<path d="M8 4.6665C7.46957 4.6665 6.96086 4.87722 6.58579 5.25229C6.21071 5.62736 6 6.13607 6 6.6665C6 7.19694 6.21071 7.70565 6.58579 8.08072C6.96086 8.45579 7.46957 8.6665 8 8.6665C8.53043 8.6665 9.03914 8.45579 9.41421 8.08072C9.78929 7.70565 10 7.19694 10 6.6665C10 6.13607 9.78929 5.62736 9.41421 5.25229C9.03914 4.87722 8.53043 4.6665 8 4.6665Z" stroke="black" stroke-width="1.25" stroke-linecap="round" stroke-linejoin="round"/>
</svg>
